<?xml version="1.0" encoding="UTF-8"?>
<svg version="1.1" xmlns="http://www.w3.org/2000/svg" width="1920" height="1080">
<path d="M0 0 C134.97 0 269.94 0 409 0 C409 33 409 66 409 100 C274.03 100 139.06 100 0 100 C-1.14077657 96.57767028 -1.09815117 93.91326783 -1.0625 90.3125 C-1.05347656 89.13300781 -1.04445313 87.95351563 -1.03515625 86.73828125 C-1.02355469 85.83464844 -1.01195312 84.93101562 -1 84 C-1.66 84 -2.32 84 -3 84 C-3 63.54 -3 43.08 -3 22 C-2.34 22 -1.68 22 -1 22 C-1.00523682 21.44014404 -1.01047363 20.88028809 -1.01586914 20.3034668 C-1.03666691 17.76482263 -1.04966904 15.22619641 -1.0625 12.6875 C-1.07087891 11.80642578 -1.07925781 10.92535156 -1.08789062 10.01757812 C-1.09111328 9.17001953 -1.09433594 8.32246094 -1.09765625 7.44921875 C-1.10289307 6.66893311 -1.10812988 5.88864746 -1.11352539 5.0847168 C-1 3 -1 3 0 0 Z " fill="#000809" transform="translate(757,468)"/>
<path d="M0 0 C0.99 0.33 1.98 0.66 3 1 C3 20.14 3 39.28 3 59 C1.515 59.495 1.515 59.495 0 60 C0 40.2 0 20.4 0 0 Z " fill="#068FF3" transform="translate(754,491)"/>
</svg>
