<?xml version="1.0" standalone="no"?>
<!DOCTYPE svg PUBLIC "-//W3C//DTD SVG 20010904//EN"
 "http://www.w3.org/TR/2001/REC-SVG-20010904/DTD/svg10.dtd">
<svg version="1.0" xmlns="http://www.w3.org/2000/svg"
 width="1920.000000pt" height="1080.000000pt" viewBox="0 0 1920.000000 1080.000000"
 preserveAspectRatio="xMidYMid meet">

<g transform="translate(0.000000,1080.000000) scale(0.100000,-0.100000)"
fill="#000000" stroke="none">
<path d="M7576 6098 c-12 -16 -16 -47 -16 -115 0 -55 -4 -93 -10 -93 -5 0 -10
-5 -10 -11 0 -5 5 -7 10 -4 7 4 10 -116 10 -352 0 -308 2 -362 16 -381 l15
-22 2019 0 c1110 0 2025 3 2034 6 14 5 16 58 16 488 0 362 -3 485 -12 494 -9
9 -475 12 -2034 12 l-2023 0 -15 -22z"/>
</g>
</svg>
